# xmcd CD database file
#
# Track frame offsets:
#	150
#	27019
#	44429
#	76954
#	95931
#	114413
#	134331
#	159458
#	174270
#	191192
#	213659
#	233743
#
# Disc length: 3381 seconds
#
# Revision: 1
# Processed by: cddbd v1.5.2PL0 Copyright (c) Steve Scherf et al.
# Submitted via: CDex 1.51
#
DISCID=a00d330c
DTITLE=Mario Biondi - Handful Of Soul
DYEAR=1900
DGENRE=
TTITLE0=A Child Runs Free
TTITLE1=No Mercy for Me
TTITLE2=This Is What You Are
TTITLE3=Rio de Janeiro Blue
TTITLE4=A Slow Hot Wind
TTITLE5=A Handful of Soul
TTITLE6=Never Die
TTITLE7=On a Clear Day (You Can See Forever)
TTITLE8=Gig
TTITLE9=I Can't Keep from Cryin' Sometime
TTITLE10=No Trouble On the Mountain
TTITLE11=I'm Her Daddy
EXTD=
EXTT0=
EXTT1=
EXTT2=
EXTT3=
EXTT4=
EXTT5=
EXTT6=
EXTT7=
EXTT8=
EXTT9=
EXTT10=
EXTT11=
PLAYORDER=
